<svg id="Layer_1" data-name="Layer 1" xmlns="http://www.w3.org/2000/svg" viewBox="0 0 322.11 285.2"><defs><style>.cls-1{fill:#fff;}.pie-stroke{fill:#393b40;}.slice-fill{fill:#5e4dc1;}</style></defs><title>main_logo for CSS V3</title><path class="cls-1" d="M319.13,147.47a135,135,0,0,1-269.67,9.64,1.61,1.61,0,0,1,.5-1.31,2.34,2.34,0,0,1,1.68-.67l135.31.6a8.94,8.94,0,0,0,7.21-14.25l-79.51-107a2.28,2.28,0,0,1-.45-1.78,1.55,1.55,0,0,1,.78-1.15,135,135,0,0,1,204.18,116Z" transform="translate(-4.55 -4.97)"/><path class="pie-stroke" d="M184.12,290.18A142.53,142.53,0,0,1,42,157.63a9.16,9.16,0,0,1,2.76-7.21,9.66,9.66,0,0,1,7-2.79l135.25.6h0a1.43,1.43,0,0,0,1.42-1.43,1.35,1.35,0,0,0-.28-.86L108.65,39a9.8,9.8,0,0,1-1.86-7.44,9,9,0,0,1,4.37-6.45C178.63-15.19,266.26,7,306.52,74.42a142.53,142.53,0,0,1,20.14,73.1s-.06,6.38-.53,12.63a108.9,108.9,0,0,1-1.43,10.93c-11.18,67.39-69.83,119-140.35,119.1ZM57.51,162.65A127.52,127.52,0,0,0,184.12,275.18h.2a127.65,127.65,0,0,0,127.31-127.7v-3a127.43,127.43,0,0,0-18-62.35C258.7,23.55,183.86,3.16,124.3,34.86L200.18,137a16.54,16.54,0,0,1,3.23,9.87,16.44,16.44,0,0,1-16.5,16.36Zm-5.91,0h0Z" transform="translate(-4.55 -4.97)"/><path class="slice-fill" d="M20.27,133.31l137.94.61a1.68,1.68,0,0,0,1.7-1.66,1.74,1.74,0,0,0-.34-1L77.27,20.48A8.16,8.16,0,0,0,65,19.42C33.15,50.75,18.62,80.87,12.14,124A8.13,8.13,0,0,0,19,133.23,7.86,7.86,0,0,0,20.27,133.31Z" transform="translate(-4.55 -4.97)"/><path class="pie-stroke" d="M158.23,141.42h-.1l-137.84-.61a14.7,14.7,0,0,1-2.39-.17A15.62,15.62,0,0,1,4.72,122.92c6.85-45.6,22.78-77.13,55-108.84a16.88,16.88,0,0,1,1.84-1.56,15.64,15.64,0,0,1,21.77,3.53l82.27,110.71a9.17,9.17,0,0,1-7.36,14.66Zm-4.69-5.73,0,.05Zm4.64-9.27h0Zm-138-.62h.16l126.31.56L71.18,24.85a.6.6,0,0,0-.41-.25.59.59,0,0,0-.47.11C40.17,54.37,26,82.51,19.56,125.13a.62.62,0,0,0,.52.67Z" transform="translate(-4.55 -4.97)"/></svg>